<?xml version="1.0" standalone="no"?>
<!DOCTYPE svg PUBLIC "-//W3C//DTD SVG 20010904//EN"
 "http://www.w3.org/TR/2001/REC-SVG-20010904/DTD/svg10.dtd">
<svg version="1.0" xmlns="http://www.w3.org/2000/svg"
 width="799.000000pt" height="799.000000pt" viewBox="0 0 799.000000 799.000000"
 preserveAspectRatio="xMidYMid meet">
<metadata>
Created by potrace 1.11, written by Peter Selinger 2001-2013
</metadata>
<g transform="translate(0.000000,799.000000) scale(0.100000,-0.100000)"
fill="#000000" stroke="none">
<path d="M2897 7124 c-1 -1 -29 -4 -62 -7 -192 -17 -373 -94 -472 -200 -88
-94 -159 -240 -178 -365 -3 -21 -8 -49 -11 -62 -9 -47 -6 -285 5 -352 l11 -68
-574 -1152 c-538 -1080 -731 -1472 -846 -1713 -26 -55 -82 -171 -124 -259 -42
-87 -76 -160 -76 -162 0 -2 -23 -52 -51 -111 -108 -227 -183 -402 -264 -613
-47 -122 -9 -321 90 -474 103 -160 288 -271 488 -292 9 -1 763 -2 1675 -3
l1657 -1 19 -53 c19 -54 73 -145 110 -185 41 -45 132 -109 196 -139 199 -93
525 -105 756 -28 242 81 404 282 439 545 4 30 9 64 12 75 2 11 3 560 2 1220
-2 2453 -2 2806 2 2810 3 2 306 6 674 8 727 4 698 2 864 61 229 82 377 288
417 576 22 162 1 412 -43 520 -4 8 -7 17 -8 20 -7 27 -51 107 -82 147 -85 113
-216 192 -366 222 -29 6 -65 13 -82 17 -39 9 -4168 26 -4178 18z m1233 -1841
c0 -141 -2 -254 -3 -252 -2 2 -61 118 -130 257 l-127 252 130 0 130 0 0 -257z
m-1183 -861 c39 -81 150 -309 373 -767 51 -104 132 -271 180 -370 48 -99 138
-283 199 -408 61 -126 111 -232 111 -235 0 -4 -411 -7 -912 -7 -681 1 -912 4
-911 12 2 7 55 119 119 250 64 131 151 310 194 398 75 156 150 308 407 835 69
140 138 283 155 318 16 34 32 62 36 62 4 -1 26 -40 49 -88z"/>
</g>
</svg>
